# Blender v2.83.12 OBJ File: 'untitled4.blend'
# www.blender.org
mtllib c2.mtl
o Cube.001_Cube.002
v 0.124984 0.000000 -0.124984
v 0.124984 0.124984 0.000000
v 0.000000 0.124984 -0.124984
v 0.124984 0.016697 -0.062574
v 0.062574 0.016697 -0.124984
v 0.065215 0.032917 -0.065215
v 0.062574 0.124984 -0.016697
v 0.124984 0.062574 -0.016697
v 0.065215 0.065215 -0.032917
v 0.016697 0.062574 -0.124984
v 0.016697 0.124984 -0.062574
v 0.032917 0.065215 -0.065215
v 0.124984 0.875016 0.000000
v 0.124984 1.000000 -0.124984
v 0.000000 0.875016 -0.124984
v 0.124984 0.937426 -0.016697
v 0.062574 0.875016 -0.016697
v 0.065215 0.934785 -0.032917
v 0.062574 0.983303 -0.124984
v 0.124984 0.983303 -0.062574
v 0.065215 0.967083 -0.065215
v 0.016697 0.875016 -0.062574
v 0.016697 0.937426 -0.124984
v 0.032917 0.934785 -0.065215
v 0.124984 0.000000 -0.875016
v 0.000000 0.124984 -0.875016
v 0.124984 0.124984 -1.000000
v 0.062574 0.016697 -0.875016
v 0.124984 0.016697 -0.937426
v 0.065215 0.032917 -0.934785
v 0.016697 0.124984 -0.937426
v 0.016697 0.062574 -0.875016
v 0.032917 0.065215 -0.934785
v 0.124984 0.062574 -0.983303
v 0.062574 0.124984 -0.983303
v 0.065215 0.065215 -0.967083
v 0.124984 1.000000 -0.875016
v 0.124984 0.875016 -1.000000
v 0.000000 0.875016 -0.875016
v 0.124984 0.983303 -0.937426
v 0.062574 0.983303 -0.875016
v 0.065215 0.967083 -0.934785
v 0.062574 0.875016 -0.983303
v 0.124984 0.937426 -0.983303
v 0.065215 0.934785 -0.967083
v 0.016697 0.937426 -0.875016
v 0.016697 0.875016 -0.937426
v 0.032917 0.934785 -0.934785
v 0.875016 0.000000 -0.124984
v 1.000000 0.124984 -0.124984
v 0.875016 0.124984 0.000000
v 0.937426 0.016697 -0.124984
v 0.875016 0.016697 -0.062574
v 0.934785 0.032917 -0.065215
v 0.983303 0.124984 -0.062574
v 0.983303 0.062574 -0.124984
v 0.967083 0.065215 -0.065215
v 0.875016 0.062574 -0.016697
v 0.937426 0.124984 -0.016697
v 0.934785 0.065215 -0.032917
v 0.875016 1.000000 -0.124984
v 0.875016 0.875016 0.000000
v 1.000000 0.875016 -0.124984
v 0.875016 0.983303 -0.062574
v 0.937426 0.983303 -0.124984
v 0.934785 0.967083 -0.065215
v 0.937426 0.875016 -0.016697
v 0.875016 0.937426 -0.016697
v 0.934785 0.934785 -0.032917
v 0.983303 0.937426 -0.124984
v 0.983303 0.875016 -0.062574
v 0.967083 0.934785 -0.065215
v 0.875016 0.000000 -0.875016
v 0.875016 0.124984 -1.000000
v 1.000000 0.124984 -0.875016
v 0.875016 0.016697 -0.937426
v 0.937426 0.016697 -0.875016
v 0.934785 0.032917 -0.934785
v 0.937426 0.124984 -0.983303
v 0.875016 0.062574 -0.983303
v 0.934785 0.065215 -0.967083
v 0.983303 0.062574 -0.875016
v 0.983303 0.124984 -0.937426
v 0.967083 0.065215 -0.934785
v 0.875016 1.000000 -0.875016
v 1.000000 0.875016 -0.875016
v 0.875016 0.875016 -1.000000
v 0.937426 0.983303 -0.875016
v 0.875016 0.983303 -0.937426
v 0.934785 0.967083 -0.934785
v 0.983303 0.875016 -0.937426
v 0.983303 0.937426 -0.875016
v 0.967083 0.934785 -0.934785
v 0.875016 0.937426 -0.983303
v 0.937426 0.875016 -0.983303
v 0.934785 0.934785 -0.967083
vt 0.643673 0.390074
vt 0.734508 0.480908
vt 0.643673 0.480908
vt 0.522565 0.390074
vt 0.613400 0.480908
vt 0.522565 0.480908
vt 0.522565 0.268966
vt 0.613400 0.359801
vt 0.522565 0.359801
vt 0.280350 0.390074
vt 0.371184 0.480908
vt 0.280350 0.480908
vt 0.401458 0.390074
vt 0.492292 0.480908
vt 0.401458 0.480908
vt 0.620958 0.602016
vt 0.613400 0.609574
vt 0.613400 0.602016
vt 0.628537 0.602016
vt 0.620638 0.609255
vt 0.742066 0.480908
vt 0.734508 0.488467
vt 0.749644 0.480908
vt 0.741746 0.488147
vt 0.280350 0.488467
vt 0.272791 0.480908
vt 0.273111 0.496045
vt 0.273111 0.488147
vt 0.628537 0.609255
vt 0.620638 0.617153
vt 0.734508 0.382515
vt 0.742066 0.390074
vt 0.734508 0.390074
vt 0.741746 0.374937
vt 0.741746 0.382835
vt 0.613400 0.261407
vt 0.620958 0.268966
vt 0.613400 0.268966
vt 0.613400 0.253829
vt 0.620638 0.261727
vt 0.272791 0.390074
vt 0.280350 0.382515
vt 0.265213 0.390074
vt 0.273111 0.382835
vt 0.749644 0.382835
vt 0.522565 0.609574
vt 0.515007 0.602016
vt 0.522565 0.602016
vt 0.522565 0.617153
vt 0.515327 0.609255
vt 0.378743 0.480908
vt 0.371184 0.488467
vt 0.393899 0.480908
vt 0.378423 0.488147
vt 0.401458 0.488467
vt 0.394219 0.496045
vt 0.394219 0.488147
vt 0.515327 0.617153
vt 0.507429 0.609255
vt 0.515007 0.268966
vt 0.522565 0.261407
vt 0.507429 0.268966
vt 0.515327 0.261727
vt 0.393899 0.390074
vt 0.401458 0.382515
vt 0.378743 0.390074
vt 0.394219 0.382835
vt 0.371184 0.382515
vt 0.371184 0.390074
vt 0.378423 0.374937
vt 0.378423 0.382835
vt 0.507429 0.261727
vt 0.515327 0.253829
vt 0.613400 0.503623
vt 0.620958 0.511181
vt 0.613400 0.511181
vt 0.613400 0.488467
vt 0.620638 0.503943
vt 0.620958 0.480908
vt 0.636115 0.480908
vt 0.620638 0.488147
vt 0.643673 0.488467
vt 0.636435 0.496045
vt 0.636435 0.488147
vt 0.620638 0.496045
vt 0.628537 0.503943
vt 0.620958 0.359801
vt 0.613400 0.367359
vt 0.628537 0.359801
vt 0.620638 0.367039
vt 0.636115 0.390074
vt 0.643673 0.382515
vt 0.620958 0.390074
vt 0.636435 0.382835
vt 0.613400 0.382515
vt 0.613400 0.390074
vt 0.620638 0.382835
vt 0.628537 0.367039
vt 0.620638 0.374937
vt 0.515007 0.511181
vt 0.522565 0.503623
vt 0.522565 0.511181
vt 0.507429 0.511181
vt 0.515327 0.503943
vt 0.499851 0.480908
vt 0.492292 0.488467
vt 0.515007 0.480908
vt 0.499531 0.488147
vt 0.522565 0.488467
vt 0.515327 0.488147
vt 0.507429 0.503943
vt 0.515327 0.496045
vt 0.522565 0.367359
vt 0.515007 0.359801
vt 0.522565 0.382515
vt 0.515327 0.367039
vt 0.515007 0.390074
vt 0.499851 0.390074
vt 0.515327 0.382835
vt 0.492292 0.382515
vt 0.492292 0.390074
vt 0.499531 0.374937
vt 0.499531 0.382835
vt 0.515327 0.374937
vt 0.507429 0.367039
vt 0.749644 0.488147
vt 0.280350 0.496045
vt 0.734508 0.374937
vt 0.620638 0.253829
vt 0.265213 0.382835
vt 0.401458 0.496045
vt 0.371184 0.374937
vt 0.643673 0.496045
vt 0.492292 0.374937
vt 0.613400 0.617153
vt 0.749644 0.390074
vt 0.522565 0.253829
vt 0.507429 0.602016
vt 0.507429 0.359801
vt 0.628537 0.511181
vt 0.628537 0.268966
vn 0.0000 0.0000 1.0000
vn 1.0000 0.0000 0.0000
vn 0.0000 1.0000 0.0000
vn -1.0000 0.0000 0.0000
vn 0.0000 0.0000 -1.0000
vn -0.2502 -0.9353 0.2502
vn -0.2178 -0.6901 0.6901
vn -0.2502 -0.2502 0.9353
vn -0.6901 -0.2178 0.6901
vn -0.9353 -0.2502 0.2502
vn -0.6901 -0.6901 0.2178
vn -0.5774 -0.5774 0.5774
vn -0.2502 0.2502 0.9353
vn -0.2178 0.6901 0.6901
vn -0.2502 0.9353 0.2502
vn -0.6901 0.6901 0.2178
vn -0.9353 0.2502 0.2502
vn -0.6901 0.2178 0.6901
vn -0.5774 0.5774 0.5773
vn -0.2502 -0.9353 -0.2502
vn -0.6901 -0.6901 -0.2178
vn -0.9353 -0.2502 -0.2502
vn -0.6901 -0.2178 -0.6901
vn -0.2502 -0.2502 -0.9353
vn -0.2178 -0.6901 -0.6901
vn -0.5773 -0.5774 -0.5774
vn -0.2502 0.9353 -0.2502
vn -0.2178 0.6901 -0.6901
vn -0.2502 0.2502 -0.9353
vn -0.6901 0.2178 -0.6901
vn -0.9353 0.2502 -0.2502
vn -0.6901 0.6901 -0.2178
vn -0.5773 0.5774 -0.5773
vn 0.2502 -0.9353 0.2502
vn 0.6901 -0.6901 0.2178
vn 0.9353 -0.2502 0.2502
vn 0.6901 -0.2178 0.6901
vn 0.2502 -0.2502 0.9353
vn 0.2178 -0.6901 0.6901
vn 0.5774 -0.5773 0.5774
vn 0.2502 0.9353 0.2502
vn 0.2178 0.6901 0.6901
vn 0.2502 0.2502 0.9353
vn 0.6901 0.2178 0.6901
vn 0.9353 0.2502 0.2502
vn 0.6901 0.6901 0.2178
vn 0.5774 0.5773 0.5773
vn 0.2502 -0.9353 -0.2502
vn 0.2178 -0.6901 -0.6901
vn 0.2502 -0.2502 -0.9353
vn 0.6901 -0.2178 -0.6901
vn 0.9353 -0.2502 -0.2502
vn 0.6901 -0.6901 -0.2178
vn 0.5773 -0.5773 -0.5774
vn 0.2502 0.9353 -0.2502
vn 0.6901 0.6901 -0.2178
vn 0.9353 0.2502 -0.2502
vn 0.6901 0.2178 -0.6901
vn 0.2502 0.2502 -0.9353
vn 0.2178 0.6901 -0.6901
vn 0.5774 0.5774 -0.5774
vn -0.2585 -0.9660 0.0000
vn -0.7071 -0.7071 0.0000
vn -0.9660 -0.2585 0.0000
vn -0.2585 0.0000 0.9660
vn -0.7071 0.0000 0.7071
vn -0.9660 0.0000 0.2585
vn -0.2585 0.9660 0.0000
vn -0.7071 0.7071 0.0000
vn -0.9660 0.2585 0.0000
vn -0.2585 0.0000 -0.9660
vn -0.7071 0.0000 -0.7071
vn -0.9660 0.0000 -0.2585
vn 0.0000 -0.9660 -0.2585
vn 0.0000 -0.7071 -0.7071
vn 0.0000 -0.2585 -0.9660
vn 0.0000 0.9660 -0.2585
vn 0.0000 0.7071 -0.7071
vn 0.0000 0.2585 -0.9660
vn 0.9660 0.0000 -0.2585
vn 0.7071 0.0000 -0.7071
vn 0.2585 0.0000 -0.9660
vn 0.2585 -0.9660 0.0000
vn 0.7071 -0.7071 0.0000
vn 0.9660 -0.2585 0.0000
vn 0.2585 0.9660 0.0000
vn 0.7071 0.7071 0.0000
vn 0.9660 0.2585 0.0000
vn 0.2585 0.0000 0.9660
vn 0.7071 0.0000 0.7071
vn 0.9660 0.0000 0.2585
vn 0.0000 -0.9660 0.2585
vn 0.0000 -0.7071 0.7071
vn 0.0000 -0.2585 0.9660
vn 0.0000 0.9660 0.2585
vn 0.0000 0.7071 0.7071
vn 0.0000 0.2585 0.9660
vn 0.0000 -1.0000 0.0000
vn -0.2635 -0.9280 0.2635
vn -0.2635 -0.2635 0.9280
vn -0.9280 -0.2635 0.2635
vn -0.2635 0.2635 0.9280
vn -0.2635 0.9280 0.2635
vn -0.9280 0.2635 0.2635
vn -0.2635 -0.9280 -0.2635
vn -0.9280 -0.2635 -0.2635
vn -0.2635 -0.2635 -0.9280
vn -0.2635 0.9280 -0.2635
vn -0.2635 0.2635 -0.9280
vn -0.9280 0.2635 -0.2635
vn 0.2635 -0.9280 0.2635
vn 0.9280 -0.2635 0.2635
vn 0.2635 -0.2635 0.9280
vn 0.2635 0.9280 0.2635
vn 0.2635 0.2635 0.9280
vn 0.9280 0.2635 0.2635
vn 0.2635 -0.9280 -0.2635
vn 0.2635 -0.2635 -0.9280
vn 0.9280 -0.2635 -0.2635
vn 0.2635 0.9280 -0.2635
vn 0.9280 0.2635 -0.2635
vn 0.2635 0.2635 -0.9280
usemtl Material.002
s off
f 62/1/1 2/2/1 51/3/1
f 86/4/2 50/5/2 75/6/2
f 37/7/3 61/8/3 85/9/3
f 15/10/4 26/11/4 3/12/4
f 38/13/5 74/14/5 27/15/5
f 4/16/6 5/17/6 1/18/6
f 8/19/7 6/20/7 4/16/7
f 7/21/8 8/22/8 2/2/8
f 11/23/9 9/24/9 7/21/9
f 10/25/10 11/26/10 3/12/10
f 10/25/11 6/27/11 12/28/11
f 6/20/12 9/29/12 12/30/12
f 16/31/13 17/32/13 13/33/13
f 16/31/14 21/34/14 18/35/14
f 19/36/15 20/37/15 14/38/15
f 23/39/16 21/40/16 19/36/16
f 22/41/17 23/42/17 15/10/17
f 17/43/18 24/44/18 22/41/18
f 18/35/19 21/34/19 24/45/19
f 28/46/20 29/47/20 25/48/20
f 32/49/21 30/50/21 28/46/21
f 31/51/22 32/52/22 26/11/22
f 35/53/23 33/54/23 31/51/23
f 34/55/24 35/53/24 27/15/24
f 34/55/25 30/56/25 36/57/25
f 30/50/26 33/58/26 36/59/26
f 40/60/27 41/61/27 37/7/27
f 44/62/28 42/63/28 40/60/28
f 43/64/29 44/65/29 38/13/29
f 47/66/30 45/67/30 43/64/30
f 46/68/31 47/66/31 39/69/31
f 46/68/32 42/70/32 48/71/32
f 42/63/33 45/72/33 48/73/33
f 52/74/34 53/75/34 49/76/34
f 56/77/35 54/78/35 52/74/35
f 55/79/36 56/77/36 50/5/36
f 59/80/37 57/81/37 55/79/37
f 58/82/38 59/80/38 51/3/38
f 58/82/39 54/83/39 60/84/39
f 54/78/40 57/85/40 60/86/40
f 64/87/41 65/88/41 61/8/41
f 68/89/42 66/90/42 64/87/42
f 67/91/43 68/92/43 62/1/43
f 71/93/44 69/94/44 67/91/44
f 70/95/45 71/93/45 63/96/45
f 70/95/46 66/90/46 72/97/46
f 66/90/47 69/98/47 72/99/47
f 76/100/48 77/101/48 73/102/48
f 80/103/49 78/104/49 76/100/49
f 79/105/50 80/106/50 74/14/50
f 83/107/51 81/108/51 79/105/51
f 82/109/52 83/107/52 75/6/52
f 82/109/53 78/104/53 84/110/53
f 78/104/54 81/111/54 84/112/54
f 88/113/55 89/114/55 85/9/55
f 92/115/56 90/116/56 88/113/56
f 91/117/57 92/115/57 86/4/57
f 95/118/58 93/119/58 91/117/58
f 94/120/59 95/118/59 87/121/59
f 94/120/60 90/122/60 96/123/60
f 90/116/61 93/124/61 96/125/61
f 1/18/62 28/46/62 25/48/62
f 5/17/63 32/49/63 28/46/63
f 10/25/64 26/11/64 32/52/64
f 13/33/65 7/21/65 2/2/65
f 17/32/66 11/23/66 7/21/66
f 22/41/67 3/12/67 11/26/67
f 37/7/68 19/36/68 14/38/68
f 41/61/69 23/39/69 19/36/69
f 46/68/70 15/10/70 23/42/70
f 27/15/71 43/64/71 38/13/71
f 35/53/72 47/66/72 43/64/72
f 31/51/73 39/69/73 47/66/73
f 25/48/74 76/100/74 73/102/74
f 29/47/75 80/103/75 76/100/75
f 34/55/76 74/14/76 80/106/76
f 85/9/77 40/60/77 37/7/77
f 89/114/78 44/62/78 40/60/78
f 94/120/79 38/13/79 44/65/79
f 75/6/80 91/117/80 86/4/80
f 83/107/81 95/118/81 91/117/81
f 79/105/82 87/121/82 95/118/82
f 73/102/83 52/74/83 49/76/83
f 77/101/84 56/77/84 52/74/84
f 82/109/85 50/5/85 56/77/85
f 61/8/86 88/113/86 85/9/86
f 65/88/87 92/115/87 88/113/87
f 70/95/88 86/4/88 92/115/88
f 51/3/89 67/91/89 62/1/89
f 59/80/90 71/93/90 67/91/90
f 55/79/91 63/96/91 71/93/91
f 49/76/92 4/16/92 1/18/92
f 53/75/93 8/19/93 4/16/93
f 58/82/94 2/2/94 8/22/94
f 14/38/95 64/87/95 61/8/95
f 20/37/96 68/89/96 64/87/96
f 16/31/97 62/1/97 68/92/97
f 73/102/98 1/18/98 25/48/98
f 62/1/1 13/33/1 2/2/1
f 86/4/2 63/96/2 50/5/2
f 37/7/3 14/38/3 61/8/3
f 15/10/4 39/69/4 26/11/4
f 38/13/5 87/121/5 74/14/5
f 4/16/99 6/20/99 5/17/99
f 8/19/7 9/29/7 6/20/7
f 7/21/100 9/24/100 8/22/100
f 11/23/9 12/126/9 9/24/9
f 10/25/101 12/28/101 11/26/101
f 10/25/11 5/127/11 6/27/11
f 16/31/102 18/35/102 17/32/102
f 16/31/14 20/128/14 21/34/14
f 19/36/103 21/40/103 20/37/103
f 23/39/16 24/129/16 21/40/16
f 22/41/104 24/44/104 23/42/104
f 17/43/18 18/130/18 24/44/18
f 28/46/105 30/50/105 29/47/105
f 32/49/21 33/58/21 30/50/21
f 31/51/106 33/54/106 32/52/106
f 35/53/23 36/57/23 33/54/23
f 34/55/107 36/57/107 35/53/107
f 34/55/25 29/131/25 30/56/25
f 40/60/108 42/63/108 41/61/108
f 44/62/28 45/72/28 42/63/28
f 43/64/109 45/67/109 44/65/109
f 47/66/30 48/71/30 45/67/30
f 46/68/110 48/71/110 47/66/110
f 46/68/32 41/132/32 42/70/32
f 52/74/111 54/78/111 53/75/111
f 56/77/35 57/81/35 54/78/35
f 55/79/112 57/81/112 56/77/112
f 59/80/37 60/84/37 57/81/37
f 58/82/113 60/84/113 59/80/113
f 58/82/39 53/133/39 54/83/39
f 64/87/114 66/90/114 65/88/114
f 68/89/42 69/98/42 66/90/42
f 67/91/115 69/94/115 68/92/115
f 71/93/44 72/97/44 69/94/44
f 70/95/116 72/97/116 71/93/116
f 70/95/46 65/88/46 66/90/46
f 76/100/117 78/104/117 77/101/117
f 80/103/49 81/111/49 78/104/49
f 79/105/118 81/108/118 80/106/118
f 83/107/51 84/110/51 81/108/51
f 82/109/119 84/110/119 83/107/119
f 82/109/53 77/101/53 78/104/53
f 88/113/120 90/116/120 89/114/120
f 92/115/56 93/119/56 90/116/56
f 91/117/121 93/119/121 92/115/121
f 95/118/58 96/123/58 93/119/58
f 94/120/122 96/123/122 95/118/122
f 94/120/60 89/134/60 90/122/60
f 1/18/62 5/17/62 28/46/62
f 5/17/63 10/135/63 32/49/63
f 10/25/64 3/12/64 26/11/64
f 13/33/65 17/32/65 7/21/65
f 17/32/66 22/136/66 11/23/66
f 22/41/67 15/10/67 3/12/67
f 37/7/68 41/61/68 19/36/68
f 41/61/69 46/137/69 23/39/69
f 46/68/70 39/69/70 15/10/70
f 27/15/71 35/53/71 43/64/71
f 35/53/72 31/51/72 47/66/72
f 31/51/73 26/11/73 39/69/73
f 25/48/74 29/47/74 76/100/74
f 29/47/75 34/138/75 80/103/75
f 34/55/76 27/15/76 74/14/76
f 85/9/77 89/114/77 40/60/77
f 89/114/78 94/139/78 44/62/78
f 94/120/79 87/121/79 38/13/79
f 75/6/80 83/107/80 91/117/80
f 83/107/81 79/105/81 95/118/81
f 79/105/82 74/14/82 87/121/82
f 73/102/83 77/101/83 52/74/83
f 77/101/84 82/109/84 56/77/84
f 82/109/85 75/6/85 50/5/85
f 61/8/86 65/88/86 88/113/86
f 65/88/87 70/95/87 92/115/87
f 70/95/88 63/96/88 86/4/88
f 51/3/89 59/80/89 67/91/89
f 59/80/90 55/79/90 71/93/90
f 55/79/91 50/5/91 63/96/91
f 49/76/92 53/75/92 4/16/92
f 53/75/93 58/140/93 8/19/93
f 58/82/94 51/3/94 2/2/94
f 14/38/95 20/37/95 64/87/95
f 20/37/96 16/141/96 68/89/96
f 16/31/97 13/33/97 62/1/97
f 73/102/98 49/76/98 1/18/98
