# Blender v2.83.12 OBJ File: 'cube_one_side_texture.blend'
# www.blender.org
mtllib cube.mtl
o Cube.001_Cube.002
v -0.375016 0.000000 -0.375016
v -0.500000 0.124984 -0.375016
v -0.375016 0.124984 -0.500000
v -0.437426 0.016697 -0.375016
v -0.375016 0.016697 -0.437426
v -0.434785 0.032917 -0.434785
v -0.483303 0.124984 -0.437426
v -0.483303 0.062574 -0.375016
v -0.467083 0.065215 -0.434785
v -0.375016 0.062574 -0.483303
v -0.437426 0.124984 -0.483303
v -0.434785 0.065215 -0.467083
v -0.500000 0.875016 -0.375016
v -0.375016 1.000000 -0.375016
v -0.375016 0.875016 -0.500000
v -0.483303 0.937426 -0.375016
v -0.483303 0.875016 -0.437426
v -0.467083 0.934785 -0.434785
v -0.375016 0.983303 -0.437426
v -0.437426 0.983303 -0.375016
v -0.434785 0.967083 -0.434785
v -0.437426 0.875016 -0.483303
v -0.375016 0.937426 -0.483303
v -0.434785 0.934785 -0.467083
v 0.375016 0.000000 -0.375016
v 0.375016 0.124984 -0.500000
v 0.500000 0.124984 -0.375016
v 0.375016 0.016697 -0.437426
v 0.437426 0.016697 -0.375016
v 0.434785 0.032917 -0.434785
v 0.437426 0.124984 -0.483303
v 0.375016 0.062574 -0.483303
v 0.434785 0.065215 -0.467083
v 0.483303 0.062574 -0.375016
v 0.483303 0.124984 -0.437426
v 0.467083 0.065215 -0.434785
v 0.375016 1.000000 -0.375016
v 0.500000 0.875016 -0.375016
v 0.375016 0.875016 -0.500000
v 0.437426 0.983303 -0.375016
v 0.375016 0.983303 -0.437426
v 0.434785 0.967083 -0.434785
v 0.483303 0.875016 -0.437426
v 0.483303 0.937426 -0.375016
v 0.467083 0.934785 -0.434785
v 0.375016 0.937426 -0.483303
v 0.437426 0.875016 -0.483303
v 0.434785 0.934785 -0.467083
v -0.375016 0.000000 0.375016
v -0.375016 0.124984 0.500000
v -0.500000 0.124984 0.375016
v -0.375016 0.016697 0.437426
v -0.437426 0.016697 0.375016
v -0.434785 0.032917 0.434785
v -0.437426 0.124984 0.483303
v -0.375016 0.062574 0.483303
v -0.434785 0.065215 0.467083
v -0.483303 0.062574 0.375016
v -0.483303 0.124984 0.437426
v -0.467083 0.065215 0.434785
v -0.375016 1.000000 0.375016
v -0.500000 0.875016 0.375016
v -0.375016 0.875016 0.500000
v -0.437426 0.983303 0.375016
v -0.375016 0.983303 0.437426
v -0.434785 0.967083 0.434785
v -0.483303 0.875016 0.437426
v -0.483303 0.937426 0.375016
v -0.467083 0.934785 0.434785
v -0.375016 0.937426 0.483303
v -0.437426 0.875016 0.483303
v -0.434785 0.934785 0.467083
v 0.375016 0.000000 0.375016
v 0.500000 0.124984 0.375016
v 0.375016 0.124984 0.500000
v 0.437426 0.016697 0.375016
v 0.375016 0.016697 0.437426
v 0.434785 0.032917 0.434785
v 0.483303 0.124984 0.437426
v 0.483303 0.062574 0.375016
v 0.467083 0.065215 0.434785
v 0.375016 0.062574 0.483303
v 0.437426 0.124984 0.483303
v 0.434785 0.065215 0.467083
v 0.375016 1.000000 0.375016
v 0.375016 0.875016 0.500000
v 0.500000 0.875016 0.375016
v 0.375016 0.983303 0.437426
v 0.437426 0.983303 0.375016
v 0.434785 0.967083 0.434785
v 0.437426 0.875016 0.483303
v 0.375016 0.937426 0.483303
v 0.434785 0.934785 0.467083
v 0.483303 0.937426 0.375016
v 0.483303 0.875016 0.437426
v 0.467083 0.934785 0.434785
vt -0.000097 -0.000003
vt -0.000097 1.000003
vt -0.000097 -0.000003
vt 1.000051 -0.000003
vt -0.000097 -0.000003
vt 1.000051 -0.000003
vt 1.000051 1.000003
vt -0.000097 -0.000003
vt 1.000051 -0.000003
vt -0.000097 1.000003
vt 1.000051 1.000003
vt -0.000097 1.000003
vt 1.000051 1.000003
vt 1.000051 -0.000003
vt 1.000051 1.000003
vt -0.000097 -0.000003
vt -0.000097 -0.000003
vt -0.000097 -0.000003
vt -0.000097 -0.000003
vt -0.000097 -0.000003
vt -0.000097 1.000003
vt -0.000097 1.000003
vt -0.000097 1.000003
vt -0.000097 1.000003
vt -0.000097 1.000003
vt -0.000097 -0.000003
vt -0.000097 -0.000003
vt -0.000097 -0.000003
vt -0.000097 1.000003
vt -0.000097 1.000003
vt -0.000097 1.000003
vt -0.000097 1.000003
vt -0.000097 1.000003
vt -0.000097 1.000003
vt -0.000097 1.000003
vt -0.000097 1.000003
vt -0.000097 1.000003
vt -0.000097 1.000003
vt -0.000097 1.000003
vt 1.000051 -0.000003
vt 1.000051 -0.000003
vt 1.000051 -0.000003
vt 1.000051 -0.000003
vt 1.000051 -0.000003
vt 1.000051 1.000003
vt 1.000051 1.000003
vt 1.000051 1.000003
vt 1.000051 1.000003
vt 1.000051 1.000003
vt 1.000051 -0.000003
vt 1.000051 -0.000003
vt 1.000051 -0.000003
vt 1.000051 1.000003
vt 1.000051 1.000003
vt 1.000051 1.000003
vt 1.000051 1.000003
vt 1.000051 1.000003
vt 1.000051 1.000003
vt 1.000051 1.000003
vt 1.000051 1.000003
vt 1.000051 1.000003
vt 1.000051 1.000003
vt -0.000097 -0.000003
vt -0.000097 -0.000003
vt -0.000097 -0.000003
vt -0.000097 -0.000003
vt -0.000097 -0.000003
vt -0.000097 -0.000003
vt -0.000097 -0.000003
vt -0.000097 -0.000003
vt -0.000097 -0.000003
vt -0.000097 -0.000003
vt -0.000097 -0.000003
vt -0.000097 -0.000003
vt -0.000097 -0.000003
vt -0.000097 -0.000003
vt -0.000097 -0.000003
vt -0.000097 -0.000003
vt -0.000097 -0.000003
vt -0.000097 -0.000003
vt -0.000097 -0.000003
vt -0.000097 -0.000003
vt 1.000051 -0.000003
vt 1.000051 -0.000003
vt 1.000051 -0.000003
vt 1.000051 -0.000003
vt 1.000051 -0.000003
vt 1.000051 -0.000003
vt 1.000051 -0.000003
vt 1.000051 -0.000003
vt 1.000051 -0.000003
vt 1.000051 -0.000003
vt 1.000051 -0.000003
vt 1.000051 -0.000003
vt 1.000051 -0.000003
vt 1.000051 -0.000003
vt 1.000051 -0.000003
vt 1.000051 -0.000003
vt 1.000051 -0.000003
vt 1.000051 -0.000003
vt 1.000051 -0.000003
vt 1.000051 -0.000003
vt -0.000097 1.000003
vt 1.000051 1.000003
vn -1.0000 0.0000 0.0000
vn 0.0000 0.0000 1.0000
vn 0.0000 1.0000 0.0000
vn 0.0000 0.0000 -1.0000
vn 1.0000 0.0000 0.0000
vn -0.2502 -0.9353 -0.2502
vn -0.6901 -0.6901 -0.2178
vn -0.9353 -0.2502 -0.2502
vn -0.6901 -0.2178 -0.6901
vn -0.2502 -0.2502 -0.9353
vn -0.2178 -0.6901 -0.6901
vn -0.5774 -0.5774 -0.5774
vn -0.9353 0.2502 -0.2502
vn -0.6901 0.6901 -0.2178
vn -0.2502 0.9353 -0.2502
vn -0.2178 0.6901 -0.6901
vn -0.2502 0.2502 -0.9353
vn -0.6901 0.2178 -0.6901
vn -0.5773 0.5774 -0.5773
vn 0.2502 -0.9353 -0.2502
vn 0.2178 -0.6901 -0.6901
vn 0.2502 -0.2502 -0.9353
vn 0.6901 -0.2178 -0.6901
vn 0.9353 -0.2502 -0.2502
vn 0.6901 -0.6901 -0.2178
vn 0.5774 -0.5774 -0.5774
vn 0.2502 0.9353 -0.2502
vn 0.6901 0.6901 -0.2178
vn 0.9353 0.2502 -0.2502
vn 0.6901 0.2178 -0.6901
vn 0.2502 0.2502 -0.9353
vn 0.2178 0.6901 -0.6901
vn 0.5773 0.5774 -0.5773
vn -0.2502 -0.9353 0.2502
vn -0.2178 -0.6901 0.6901
vn -0.2502 -0.2502 0.9353
vn -0.6901 -0.2178 0.6901
vn -0.9353 -0.2502 0.2502
vn -0.6901 -0.6901 0.2178
vn -0.5774 -0.5774 0.5774
vn -0.2502 0.9353 0.2502
vn -0.6901 0.6901 0.2178
vn -0.9353 0.2502 0.2502
vn -0.6901 0.2178 0.6901
vn -0.2502 0.2502 0.9353
vn -0.2178 0.6901 0.6901
vn -0.5773 0.5774 0.5773
vn 0.2502 -0.9353 0.2502
vn 0.6901 -0.6901 0.2178
vn 0.9353 -0.2502 0.2502
vn 0.6901 -0.2178 0.6901
vn 0.2502 -0.2502 0.9353
vn 0.2178 -0.6901 0.6901
vn 0.5774 -0.5774 0.5774
vn 0.2502 0.9353 0.2502
vn 0.2178 0.6901 0.6901
vn 0.2502 0.2502 0.9353
vn 0.6901 0.2178 0.6901
vn 0.9353 0.2502 0.2502
vn 0.6901 0.6901 0.2178
vn 0.5773 0.5774 0.5773
vn 0.0000 -0.9660 -0.2585
vn 0.0000 -0.7071 -0.7071
vn 0.0000 -0.2585 -0.9660
vn -0.9660 0.0000 -0.2585
vn -0.7071 0.0000 -0.7071
vn -0.2585 0.0000 -0.9660
vn 0.0000 0.9660 -0.2585
vn 0.0000 0.7071 -0.7071
vn 0.0000 0.2585 -0.9660
vn 0.9660 0.0000 -0.2585
vn 0.7071 0.0000 -0.7071
vn 0.2585 0.0000 -0.9660
vn 0.2585 -0.9660 0.0000
vn 0.7071 -0.7071 0.0000
vn 0.9660 -0.2585 0.0000
vn 0.2585 0.9660 0.0000
vn 0.7071 0.7071 0.0000
vn 0.9660 0.2585 0.0000
vn 0.2585 0.0000 0.9660
vn 0.7071 0.0000 0.7071
vn 0.9660 0.0000 0.2585
vn 0.0000 -0.9660 0.2585
vn 0.0000 -0.7071 0.7071
vn 0.0000 -0.2585 0.9660
vn 0.0000 0.9660 0.2585
vn 0.0000 0.7071 0.7071
vn 0.0000 0.2585 0.9660
vn -0.9660 0.0000 0.2585
vn -0.7071 0.0000 0.7071
vn -0.2585 0.0000 0.9660
vn -0.2585 -0.9660 0.0000
vn -0.7071 -0.7071 0.0000
vn -0.9660 -0.2585 0.0000
vn -0.2585 0.9660 0.0000
vn -0.7071 0.7071 0.0000
vn -0.9660 0.2585 0.0000
vn 0.0000 -1.0000 0.0000
vn -0.2635 -0.9280 -0.2635
vn -0.9280 -0.2635 -0.2635
vn -0.2635 -0.2635 -0.9280
vn -0.9280 0.2635 -0.2635
vn -0.2635 0.9280 -0.2635
vn -0.2635 0.2635 -0.9280
vn 0.2635 -0.9280 -0.2635
vn 0.2635 -0.2635 -0.9280
vn 0.9280 -0.2635 -0.2635
vn 0.2635 0.9280 -0.2635
vn 0.9280 0.2635 -0.2635
vn 0.2635 0.2635 -0.9280
vn -0.2635 -0.9280 0.2635
vn -0.2635 -0.2635 0.9280
vn -0.9280 -0.2635 0.2635
vn -0.2635 0.9280 0.2635
vn -0.9280 0.2635 0.2635
vn -0.2635 0.2635 0.9280
vn 0.2635 -0.9280 0.2635
vn 0.9280 -0.2635 0.2635
vn 0.2635 -0.2635 0.9280
vn 0.2635 0.9280 0.2635
vn 0.2635 0.2635 0.9280
vn 0.9280 0.2635 0.2635
usemtl Material.002
s off
f 62/1/1 2/2/1 51/3/1
f 86/4/2 50/5/2 75/6/2
f 37/7/3 61/8/3 85/9/3
f 15/10/4 26/11/4 3/12/4
f 38/13/5 74/14/5 27/15/5
f 4/16/6 5/17/6 1/18/6
f 8/19/7 6/20/7 4/16/7
f 7/21/8 8/22/8 2/2/8
f 11/23/9 9/24/9 7/21/9
f 10/25/10 11/23/10 3/12/10
f 10/26/11 6/20/11 12/27/11
f 6/20/12 9/28/12 12/27/12
f 16/29/13 17/30/13 13/31/13
f 16/29/14 21/32/14 18/33/14
f 19/34/15 20/35/15 14/36/15
f 23/37/16 21/32/16 19/34/16
f 22/38/17 23/37/17 15/10/17
f 17/30/18 24/39/18 22/38/18
f 18/33/19 21/32/19 24/39/19
f 28/40/20 29/41/20 25/42/20
f 32/43/21 30/44/21 28/40/21
f 31/45/22 32/46/22 26/11/22
f 35/47/23 33/48/23 31/45/23
f 34/49/24 35/47/24 27/15/24
f 34/50/25 30/44/25 36/51/25
f 30/44/26 33/52/26 36/51/26
f 40/53/27 41/54/27 37/7/27
f 44/55/28 42/56/28 40/53/28
f 43/57/29 44/55/29 38/13/29
f 47/58/30 45/59/30 43/57/30
f 46/60/31 47/58/31 39/61/31
f 46/60/32 42/56/32 48/62/32
f 42/56/33 45/59/33 48/62/33
f 52/63/34 53/64/34 49/65/34
f 56/66/35 54/67/35 52/63/35
f 55/68/36 56/66/36 50/5/36
f 59/69/37 57/70/37 55/68/37
f 58/71/38 59/69/38 51/3/38
f 58/71/39 54/67/39 60/72/39
f 54/67/40 57/70/40 60/72/40
f 64/73/41 65/74/41 61/8/41
f 68/75/42 66/76/42 64/73/42
f 67/77/43 68/75/43 62/1/43
f 71/78/44 69/79/44 67/77/44
f 70/80/45 71/78/45 63/81/45
f 70/80/46 66/76/46 72/82/46
f 66/76/47 69/79/47 72/82/47
f 76/83/48 77/84/48 73/85/48
f 80/86/49 78/87/49 76/83/49
f 79/88/50 80/86/50 74/14/50
f 83/89/51 81/90/51 79/88/51
f 82/91/52 83/89/52 75/6/52
f 82/91/53 78/87/53 84/92/53
f 78/87/54 81/90/54 84/92/54
f 88/93/55 89/94/55 85/9/55
f 92/95/56 90/96/56 88/93/56
f 91/97/57 92/95/57 86/4/57
f 95/98/58 93/99/58 91/97/58
f 94/100/59 95/98/59 87/101/59
f 94/100/60 90/96/60 96/102/60
f 90/96/61 93/99/61 96/102/61
f 1/18/62 28/40/62 25/42/62
f 5/17/63 32/43/63 28/40/63
f 10/25/64 26/11/64 32/46/64
f 13/31/65 7/21/65 2/2/65
f 17/30/66 11/23/66 7/21/66
f 22/38/67 3/12/67 11/23/67
f 37/7/68 19/34/68 14/36/68
f 41/54/69 23/37/69 19/34/69
f 46/60/70 15/10/70 23/37/70
f 27/15/71 43/57/71 38/13/71
f 35/47/72 47/58/72 43/57/72
f 31/45/73 39/61/73 47/58/73
f 25/42/74 76/83/74 73/85/74
f 29/41/75 80/86/75 76/83/75
f 34/49/76 74/14/76 80/86/76
f 85/9/77 40/53/77 37/7/77
f 89/94/78 44/55/78 40/53/78
f 94/100/79 38/13/79 44/55/79
f 75/6/80 91/97/80 86/4/80
f 83/89/81 95/98/81 91/97/81
f 79/88/82 87/101/82 95/98/82
f 73/85/83 52/63/83 49/65/83
f 77/84/84 56/66/84 52/63/84
f 82/91/85 50/5/85 56/66/85
f 61/8/86 88/93/86 85/9/86
f 65/74/87 92/95/87 88/93/87
f 70/80/88 86/4/88 92/95/88
f 51/3/89 67/77/89 62/1/89
f 59/69/90 71/78/90 67/77/90
f 55/68/91 63/81/91 71/78/91
f 49/65/92 4/16/92 1/18/92
f 53/64/93 8/19/93 4/16/93
f 58/71/94 2/2/94 8/22/94
f 14/36/95 64/73/95 61/8/95
f 20/35/96 68/75/96 64/73/96
f 16/29/97 62/1/97 68/75/97
f 73/85/98 1/18/98 25/42/98
f 62/1/1 13/31/1 2/2/1
f 86/4/2 63/81/2 50/5/2
f 37/7/3 14/36/3 61/8/3
f 15/10/4 39/61/4 26/11/4
f 38/13/5 87/101/5 74/14/5
f 4/16/99 6/20/99 5/17/99
f 8/19/7 9/28/7 6/20/7
f 7/21/100 9/24/100 8/22/100
f 11/23/9 12/103/9 9/24/9
f 10/25/101 12/103/101 11/23/101
f 10/26/11 5/17/11 6/20/11
f 16/29/102 18/33/102 17/30/102
f 16/29/14 20/35/14 21/32/14
f 19/34/103 21/32/103 20/35/103
f 23/37/16 24/39/16 21/32/16
f 22/38/104 24/39/104 23/37/104
f 17/30/18 18/33/18 24/39/18
f 28/40/105 30/44/105 29/41/105
f 32/43/21 33/52/21 30/44/21
f 31/45/106 33/48/106 32/46/106
f 35/47/23 36/104/23 33/48/23
f 34/49/107 36/104/107 35/47/107
f 34/50/25 29/41/25 30/44/25
f 40/53/108 42/56/108 41/54/108
f 44/55/28 45/59/28 42/56/28
f 43/57/109 45/59/109 44/55/109
f 47/58/30 48/62/30 45/59/30
f 46/60/110 48/62/110 47/58/110
f 46/60/32 41/54/32 42/56/32
f 52/63/111 54/67/111 53/64/111
f 56/66/35 57/70/35 54/67/35
f 55/68/112 57/70/112 56/66/112
f 59/69/37 60/72/37 57/70/37
f 58/71/113 60/72/113 59/69/113
f 58/71/39 53/64/39 54/67/39
f 64/73/114 66/76/114 65/74/114
f 68/75/42 69/79/42 66/76/42
f 67/77/115 69/79/115 68/75/115
f 71/78/44 72/82/44 69/79/44
f 70/80/116 72/82/116 71/78/116
f 70/80/46 65/74/46 66/76/46
f 76/83/117 78/87/117 77/84/117
f 80/86/49 81/90/49 78/87/49
f 79/88/118 81/90/118 80/86/118
f 83/89/51 84/92/51 81/90/51
f 82/91/119 84/92/119 83/89/119
f 82/91/53 77/84/53 78/87/53
f 88/93/120 90/96/120 89/94/120
f 92/95/56 93/99/56 90/96/56
f 91/97/121 93/99/121 92/95/121
f 95/98/58 96/102/58 93/99/58
f 94/100/122 96/102/122 95/98/122
f 94/100/60 89/94/60 90/96/60
f 1/18/62 5/17/62 28/40/62
f 5/17/63 10/26/63 32/43/63
f 10/25/64 3/12/64 26/11/64
f 13/31/65 17/30/65 7/21/65
f 17/30/66 22/38/66 11/23/66
f 22/38/67 15/10/67 3/12/67
f 37/7/68 41/54/68 19/34/68
f 41/54/69 46/60/69 23/37/69
f 46/60/70 39/61/70 15/10/70
f 27/15/71 35/47/71 43/57/71
f 35/47/72 31/45/72 47/58/72
f 31/45/73 26/11/73 39/61/73
f 25/42/74 29/41/74 76/83/74
f 29/41/75 34/50/75 80/86/75
f 34/49/76 27/15/76 74/14/76
f 85/9/77 89/94/77 40/53/77
f 89/94/78 94/100/78 44/55/78
f 94/100/79 87/101/79 38/13/79
f 75/6/80 83/89/80 91/97/80
f 83/89/81 79/88/81 95/98/81
f 79/88/82 74/14/82 87/101/82
f 73/85/83 77/84/83 52/63/83
f 77/84/84 82/91/84 56/66/84
f 82/91/85 75/6/85 50/5/85
f 61/8/86 65/74/86 88/93/86
f 65/74/87 70/80/87 92/95/87
f 70/80/88 63/81/88 86/4/88
f 51/3/89 59/69/89 67/77/89
f 59/69/90 55/68/90 71/78/90
f 55/68/91 50/5/91 63/81/91
f 49/65/92 53/64/92 4/16/92
f 53/64/93 58/71/93 8/19/93
f 58/71/94 51/3/94 2/2/94
f 14/36/95 20/35/95 64/73/95
f 20/35/96 16/29/96 68/75/96
f 16/29/97 13/31/97 62/1/97
f 73/85/98 49/65/98 1/18/98
